<svg id="Layer_2" data-name="Layer 2" xmlns="http://www.w3.org/2000/svg" viewBox="0 0 117.75 48.5"><defs><style>.cls-1{fill:#dd5850;}.cls-2{fill:#4c4c4c;}</style></defs><title>idus_logo(3)</title><rect class="cls-1" x="1.5" y="14.5" width="11" height="32"/><ellipse class="cls-1" cx="7" cy="6.51" rx="5.5" ry="5.46"/><path class="cls-1" d="M49.5,31V1.5h-10V31.05a5.5,5.5,0,1,1-6-5.53l.49,0h1.5v-10H34a15.5,15.5,0,1,0,15.28,18A15.31,15.31,0,0,0,49.5,31V31Z"/><path class="cls-2" d="M72.5,15.5V33h0a3.5,3.5,0,0,1-7,0V15.5h-10V33a13.65,13.65,0,0,0,.24,2.49,13.49,13.49,0,0,0,26.52,0A12.82,12.82,0,0,0,82.5,33V15.5Z"/><path class="cls-2" d="M107.42,26.68h0a10.08,10.08,0,0,0-1.92-.19H97.93a1.5,1.5,0,0,1,.06-3H114.5v-8h-17a10,10,0,0,0-4,19.16,9.68,9.68,0,0,0,2.08.65h0a9.74,9.74,0,0,0,1.72.18h.4l.15,0H106a1.5,1.5,0,0,1,0,3H88.5v8h17a9.88,9.88,0,0,0,4-.84h0a10,10,0,0,0-2.08-19Z"/></svg>