<?xml version="1.0" encoding="utf-8"?>
<!-- Generator: Adobe Illustrator 23.0.3, SVG Export Plug-In . SVG Version: 6.00 Build 0)  -->
<svg version="1.1" id="Layer_2" xmlns="http://www.w3.org/2000/svg" xmlns:xlink="http://www.w3.org/1999/xlink" x="0px" y="0px"
	 viewBox="0 0 130 130" style="enable-background:new 0 0 130 130;" xml:space="preserve">
<style type="text/css">
	.st0{fill:#DD5850;}
	.st1{fill:#FFFFFF;}
</style>
<rect class="st0" width="130" height="130"/>
<rect x="8.37" y="56.25" class="st1" width="11" height="32"/>
<ellipse class="st1" cx="13.88" cy="48.26" rx="5.5" ry="5.46"/>
<path class="st1" d="M56.37,72.71V43.25h-10v11.99v3.03V72.7v0.11c-0.01,0.88-0.23,1.71-0.6,2.44c-0.91,1.78-2.76,3.01-4.9,3.01
	c-3.04,0-5.5-2.46-5.5-5.5c0-2.87,2.2-5.22,5.01-5.48c0.16-0.01,0.33-0.02,0.49-0.02h1.5v-9.58v-0.35v-0.07H40.9
	c-0.01,0-0.02,0-0.02,0c-8.56,0-15.5,6.94-15.5,15.5s6.94,15.5,15.5,15.5c7.71,0,14.08-5.63,15.28-13c0.13-0.8,0.22-1.62,0.22-2.46
	c0-0.01,0-0.03,0-0.04S56.37,72.72,56.37,72.71z"/>
<path class="st1" d="M79.38,57.25v4.48v13.02h0c0,1.93-1.57,3.5-3.5,3.5s-3.5-1.57-3.5-3.5V61.73v-4.48h-10v17.51
	c0,0.85,0.09,1.68,0.24,2.49c1.17,6.26,6.66,11.01,13.26,11.01s12.09-4.74,13.26-11.01c0.15-0.81,0.24-1.64,0.24-2.49V57.25H79.38z"
	/>
<path class="st1" d="M114.3,68.43C114.3,68.43,114.3,68.43,114.3,68.43c-0.62-0.12-1.27-0.19-1.92-0.19h-7.43h-0.07h-0.07
	c-0.79-0.04-1.43-0.69-1.43-1.49c0-0.82,0.67-1.49,1.49-1.5h0.01h0.01h9.29h7.2v0v-8h-17c-1.42,0-2.77,0.3-4,0.84
	c-3.53,1.54-6,5.06-6,9.16s2.47,7.62,6,9.16c0.66,0.29,1.35,0.51,2.08,0.65c0,0,0,0,0,0c0.56,0.11,1.14,0.17,1.72,0.18
	c0.07,0,0.13,0.01,0.2,0.01s0.13-0.01,0.2-0.01c0.05,0,0.1-0.01,0.15-0.01v0c-0.04,0-0.08,0.01-0.11,0.01h-0.03
	c-0.07,0-0.13,0.01-0.2,0.01h8.5c0.83,0,1.5,0.67,1.5,1.5c0,0.81-0.65,1.47-1.45,1.5h-0.03c-0.01,0-0.01,0-0.02,0s-0.01,0-0.02,0
	h-10.28h-7.2v8h17c1.42,0,2.78-0.3,4-0.84v0.01c3.53-1.55,6-5.07,6-9.17C122.38,73.38,118.9,69.32,114.3,68.43z"/>
</svg>
